<?xml version="1.0" encoding="UTF-8" standalone="no"?><!DOCTYPE svg PUBLIC "-//W3C//DTD SVG 1.1//EN" "http://www.w3.org/Graphics/SVG/1.1/DTD/svg11.dtd"><svg width="100%" height="100%" viewBox="0 0 118 118" version="1.1" xmlns="http://www.w3.org/2000/svg" xmlns:xlink="http://www.w3.org/1999/xlink" xml:space="preserve" xmlns:serif="http://www.serif.com/" style="fill-rule:evenodd;clip-rule:evenodd;stroke-linecap:round;stroke-linejoin:round;stroke-miterlimit:1.5;"><g><path d="M118,11.8c0,-6.513 -5.287,-11.8 -11.8,-11.8l-94.4,0c-6.513,0 -11.8,5.287 -11.8,11.8l0,94.4c0,6.513 5.287,11.8 11.8,11.8l94.4,0c6.513,0 11.8,-5.287 11.8,-11.8l0,-94.4Z" style="fill:#0e0e0e;"/><path d="M115,12.701c0,-5.354 -4.347,-9.701 -9.701,-9.701l-92.598,-0c-5.354,-0 -9.701,4.347 -9.701,9.701l-0,92.598c-0,5.354 4.347,9.701 9.701,9.701l92.598,0c5.354,0 9.701,-4.347 9.701,-9.701l0,-92.598Z" style="fill:none;stroke:#e30000;stroke-width:1.5px;"/><path d="M81.646,12.314c-0.848,2.079 -1.723,3.924 -2.625,5.538l-2.872,4.88l-27.808,43.764l6.07,0.246l10.828,0.082c3.418,0 6.713,-0.137 9.885,-0.41c3.172,-0.273 5.756,-0.643 7.752,-1.107c-0.711,1.285 -1.354,2.351 -1.928,3.199c-0.574,0.902 -0.998,1.545 -1.271,1.928c-0.629,0.957 -1.19,1.572 -1.682,1.845c-0.547,0.301 -1.244,0.533 -2.092,0.698l-3.937,0.164l-8.408,-0.164l-12.182,-0.165l-10.008,0.083l-9.105,0.246c0.355,-0.848 0.724,-1.696 1.107,-2.543c0.219,-0.493 0.697,-1.327 1.436,-2.502c0.601,-1.231 1.21,-2.325 1.825,-3.282c0.615,-0.957 1.073,-1.654 1.374,-2.091l28.055,-43.846l-6.276,-0.246l-5.291,-0.082c-5.496,-0 -9.392,0.109 -11.689,0.328c-1.176,-0 -2.215,0.082 -3.117,0.246c-0.903,0.219 -1.915,0.492 -3.036,0.82c1.422,-3.062 2.748,-5.072 3.979,-6.029c1.449,-0.957 3.514,-1.435 6.193,-1.435l2.789,0.082c2.297,-0 6.071,0.054 11.321,0.164c5.222,0.109 7.943,0.164 8.162,0.164c0.847,-0 2.051,-0.028 3.609,-0.082c1.504,-0.055 2.57,-0.082 3.199,-0.082c0.711,-0 1.409,-0.028 2.092,-0.082c0.684,-0 1.901,-0.11 3.651,-0.329Z" style="fill:#e30000;fill-rule:nonzero;"/><g><path d="M32.672,82.234c-0.427,1.146 -0.896,1.901 -1.406,2.266c-0.532,0.385 -1.579,0.578 -3.141,0.578l-2.172,0c-0.656,0 -1.125,0.083 -1.406,0.25c-0.302,0.198 -0.453,0.531 -0.453,1l-0,14.469c-0,1.021 0.172,1.713 0.515,2.078c0.344,0.354 0.974,0.531 1.891,0.531c-0.323,0.927 -0.661,1.526 -1.016,1.797c-0.385,0.281 -1.062,0.422 -2.031,0.422l-4.797,-0c0.156,-0.26 0.297,-0.536 0.422,-0.828c0.104,-0.302 0.188,-0.625 0.25,-0.969c0.167,-0.75 0.25,-1.516 0.25,-2.297l0,-15.172c0,-0.552 -0.167,-0.927 -0.5,-1.125c-0.167,-0.083 -0.474,-0.145 -0.922,-0.187c-0.479,-0.042 -1.156,-0.063 -2.031,-0.063l-2.844,0.094c-0.271,0 -0.536,0.021 -0.797,0.063c-0.281,0.041 -0.698,0.135 -1.25,0.281c0.407,-1.125 0.917,-1.901 1.532,-2.328c0.625,-0.386 1.854,-0.578 3.687,-0.578l3.609,0.062l4.782,0.063c1.166,-0 2.156,-0.011 2.968,-0.032c0.813,-0.02 1.594,-0.041 2.344,-0.062c0.49,-0 0.948,-0.031 1.375,-0.094c0.396,-0.042 0.776,-0.114 1.141,-0.219Z" style="fill:#e30000;fill-rule:nonzero;"/><path d="M41.781,89.187c-1.416,0 -2.487,0.628 -3.211,1.883c-0.724,1.256 -1.086,3.045 -1.086,5.367c0,2.407 0.365,4.209 1.094,5.407c0.719,1.218 1.787,1.828 3.203,1.828c1.406,-0 2.479,-0.61 3.219,-1.828c0.344,-0.594 0.615,-1.349 0.812,-2.266c0.167,-0.917 0.25,-1.963 0.25,-3.141c0,-2.427 -0.354,-4.25 -1.062,-5.468c-0.719,-1.188 -1.792,-1.782 -3.219,-1.782Zm0,-2.312c2.709,-0 4.849,0.828 6.422,2.484c1.563,1.688 2.344,4.047 2.344,7.078c-0,2.99 -0.781,5.323 -2.344,7c-1.573,1.719 -3.713,2.579 -6.422,2.579c-2.739,-0 -4.875,-0.844 -6.406,-2.532c-0.792,-0.854 -1.38,-1.869 -1.766,-3.047c-0.406,-1.156 -0.609,-2.489 -0.609,-4c-0,-3.01 0.779,-5.356 2.336,-7.039c1.557,-1.682 3.706,-2.523 6.445,-2.523Z" style="fill:#e30000;fill-rule:nonzero;"/><path d="M54.094,87.25l3.234,-0l-0.187,0.484l-0.047,0.453l0.047,0.469l0.187,0.516l4.297,9.312l0.516,1.219l0.562,1.828l0.328,-0.875l0.516,-1.344l2.484,-5.781l-0.797,-2.187c-0.26,-0.698 -0.604,-1.198 -1.031,-1.5c-0.25,-0.167 -0.526,-0.308 -0.828,-0.422c-0.302,-0.083 -0.656,-0.125 -1.063,-0.125c0.396,-0.833 0.787,-1.386 1.172,-1.656c0.355,-0.261 0.98,-0.391 1.875,-0.391l3.172,-0c-0.125,0.26 -0.198,0.443 -0.219,0.547l-0.062,0.453l0.031,0.344l0.156,0.547l3.641,9.406l0.672,2.109l0.266,0.875l0.375,-1.281l0.453,-1.219l3.015,-7.14l0.219,-0.704l0.094,-0.609c-0,-0.406 -0.154,-0.682 -0.461,-0.828c-0.307,-0.146 -0.987,-0.276 -2.039,-0.391c0.385,-0.854 0.76,-1.416 1.125,-1.687c0.344,-0.281 0.974,-0.422 1.89,-0.422l4.282,-0c-0.334,0.427 -0.823,1.365 -1.469,2.812l-0.125,0.235l-5.609,12.672c-0.49,1.104 -1.011,1.88 -1.563,2.328c-0.302,0.198 -0.633,0.362 -0.992,0.492c-0.359,0.13 -0.815,0.237 -1.367,0.32l0.062,-0.125l0,-0.156c0,-0.156 -0.088,-0.458 -0.265,-0.906l-0.063,-0.172l-3.328,-8.531l-2.688,6.625c-0.51,1.208 -1.02,2.036 -1.531,2.484c-0.531,0.417 -1.291,0.677 -2.281,0.781l-0,-0.156c-0,-0.219 -0.031,-0.38 -0.094,-0.484c-0.041,-0.261 -0.104,-0.464 -0.187,-0.61l-6.157,-13.156c-0.385,-0.854 -0.833,-1.453 -1.343,-1.797c-0.146,-0.083 -0.339,-0.177 -0.578,-0.281c-0.407,-0.177 -0.865,-0.266 -1.375,-0.266c0.343,-0.854 0.708,-1.416 1.093,-1.687c0.386,-0.281 1.047,-0.422 1.985,-0.422Z" style="fill:#e30000;fill-rule:nonzero;"/><path d="M100.859,94.203l0,6.938c0,0.958 0.141,1.567 0.422,1.828c0.292,0.343 0.813,0.515 1.563,0.515c-0.282,0.896 -0.599,1.469 -0.953,1.719c-0.386,0.281 -0.995,0.422 -1.829,0.422l-4.125,-0c0.271,-0.49 0.474,-1.036 0.61,-1.641c0.114,-0.573 0.172,-1.234 0.172,-1.984l-0,-8.766c-0,-1.385 -0.282,-2.416 -0.844,-3.093c-0.583,-0.657 -1.458,-0.985 -2.625,-0.985c-1.323,0 -2.299,0.37 -2.93,1.11c-0.63,0.739 -0.945,1.89 -0.945,3.453l-0,7.265c-0,0.855 0.135,1.495 0.406,1.922c0.198,0.188 0.412,0.323 0.641,0.406c0.239,0.115 0.552,0.172 0.937,0.172c-0.281,0.802 -0.614,1.355 -1,1.657c-0.385,0.323 -0.989,0.484 -1.812,0.484l-4.11,-0c0.24,-0.385 0.433,-0.911 0.579,-1.578c0.052,-0.167 0.099,-0.37 0.14,-0.61c0.021,-0.229 0.063,-0.687 0.125,-1.375l0,-10.625c0,-0.718 -0.13,-1.239 -0.39,-1.562c-0.125,-0.104 -0.256,-0.188 -0.391,-0.25c-0.292,-0.135 -0.672,-0.203 -1.141,-0.203c0.24,-0.875 0.542,-1.458 0.907,-1.75c0.333,-0.302 0.948,-0.453 1.843,-0.453l0.641,-0l1.25,-0.063l1.187,-0.219c-0.041,0.428 -0.093,0.735 -0.156,0.922l-0.094,1.344c0.678,-0.771 1.474,-1.359 2.391,-1.766c0.896,-0.375 1.948,-0.562 3.156,-0.562c2.24,-0 3.865,0.583 4.875,1.75c1,1.198 1.5,3.057 1.5,5.578Z" style="fill:#e30000;fill-rule:nonzero;"/></g></g></svg>