<?xml version="1.0" encoding="UTF-8" standalone="no"?><!DOCTYPE svg PUBLIC "-//W3C//DTD SVG 1.1//EN" "http://www.w3.org/Graphics/SVG/1.1/DTD/svg11.dtd"><svg width="100%" height="100%" viewBox="0 0 534 534" version="1.1" xmlns="http://www.w3.org/2000/svg" xmlns:xlink="http://www.w3.org/1999/xlink" xml:space="preserve" xmlns:serif="http://www.serif.com/" style="fill-rule:evenodd;clip-rule:evenodd;stroke-linecap:round;stroke-linejoin:round;stroke-miterlimit:2;"><g id="g698"><path d="M516.667,43.139c-0,-14.61 -11.862,-26.472 -26.473,-26.472l-447.055,-0c-14.61,-0 -26.472,11.862 -26.472,26.472l-0,447.055c-0,14.611 11.862,26.473 26.472,26.473l447.055,-0c14.611,-0 26.473,-11.862 26.473,-26.473l-0,-447.055Z" style="stroke:#fff;stroke-width:17.36px;"/><path d="M516.667,43.139c-0,-14.61 -11.862,-26.472 -26.473,-26.472l-447.055,-0c-14.61,-0 -26.472,11.862 -26.472,26.472l-0,447.055c-0,14.611 11.862,26.473 26.472,26.473l447.055,-0c14.611,-0 26.473,-11.862 26.473,-26.473l-0,-447.055Z" style="fill:#151515;"/><path id="Target-White" serif:id="Target White" d="M354.084,65.615l-0,-20.699c-0,-1.793 1.456,-3.249 3.249,-3.249l27.001,-0c1.793,-0 3.249,1.456 3.249,3.249l-0,20.699c40.849,7.017 73.116,39.283 80.135,80.135l20.699,0c1.794,0 3.25,1.456 3.25,3.25l-0,27c-0,1.794 -1.456,3.25 -3.25,3.25l-20.699,-0c-7.017,40.848 -39.283,73.116 -80.135,80.135l-0,20.699c-0,1.793 -1.456,3.249 -3.249,3.249l-27.001,0c-1.793,0 -3.249,-1.456 -3.249,-3.249l-0,-20.699c-40.849,-7.017 -73.117,-39.283 -80.135,-80.135l-20.7,-0c-1.793,-0 -3.249,-1.456 -3.249,-3.25l0,-27c0,-1.794 1.456,-3.25 3.249,-3.25l20.7,0c7.017,-40.848 39.283,-73.116 80.135,-80.135Zm16.749,24.693c39.844,0 72.192,32.348 72.192,72.192c-0,39.844 -32.348,72.192 -72.192,72.192c-39.843,-0 -72.191,-32.348 -72.191,-72.192c-0,-39.844 32.348,-72.192 72.191,-72.192Zm0,42.526c16.373,0 29.666,13.293 29.666,29.666c0,16.373 -13.293,29.666 -29.666,29.666c-16.373,-0 -29.666,-13.293 -29.666,-29.666c0,-16.373 13.293,-29.666 29.666,-29.666Z" style="fill:#ca0012;"/><path id="Bullet" d="M388.274,367.343l77.801,-0l-0,90.811c-0,0 -18.162,-0.144 -18.162,9.081c-0.001,9.225 18.162,9.081 18.162,9.081l-0,21.19l-77.801,-0l-0,-21.19c-0,0 18.162,0.023 18.162,-9.081c0,-9.104 -18.162,-9.081 -18.162,-9.081l-0,-90.811Zm9.081,115.027l12.108,-3.027l-0,12.108l-12.108,0l-0,-9.081Zm-0,-108.973l12.108,-0l-0,69.622l-12.108,-0l-0,-69.622Zm29.819,-81.73c29.336,-0 38.901,54.486 38.901,54.486l-0,12.109l-77.801,-0l-0,-12.108c-0,-0 9.565,-54.487 38.9,-54.487Zm-29.819,51.459c-0,0 2.567,-8.477 6.054,-15.135c3.487,-6.657 9.081,-12.108 9.081,-12.108c-0,-0 -2.71,12.561 -3.027,18.162c-0.317,5.601 0,18.163 0,18.163l-12.108,-0.001l-0,-9.081Z" style="fill:#0048e5;"/><path id="Bullet1" serif:id="Bullet" d="M226.073,367.343l77.801,-0l0,90.811c0,0 -18.162,-0.144 -18.162,9.081c-0,9.225 18.162,9.081 18.162,9.081l0,21.19l-77.801,-0l0,-21.19c0,0 18.163,0.023 18.162,-9.081c0,-9.104 -18.162,-9.081 -18.162,-9.081l0,-90.811Zm9.081,115.027l12.108,-3.027l0,12.108l-12.108,0l0,-9.081Zm0,-108.973l12.109,-0l-0.001,69.622l-12.108,-0l0,-69.622Zm29.82,-81.73c29.335,-0 38.9,54.486 38.9,54.486l0,12.109l-77.801,-0l0,-12.108c0,-0 9.565,-54.487 38.901,-54.487Zm-29.82,51.459c0,0 2.567,-8.477 6.054,-15.135c3.488,-6.657 9.081,-12.108 9.081,-12.108c0,-0 -2.71,12.561 -3.027,18.162c-0.317,5.601 0,18.163 0,18.163l-12.108,-0.001l0,-9.081Z" style="fill:#56a400;"/><path id="Bullet2" serif:id="Bullet" d="M66.068,367.343l77.801,-0l0,90.811c0,0 -18.162,-0.144 -18.162,9.081c0,9.225 18.162,9.081 18.162,9.081l0,21.19l-77.801,-0l0,-21.19c0,0 18.163,0.023 18.163,-9.081c-0,-9.104 -18.163,-9.081 -18.163,-9.081l0,-90.811Zm9.081,115.027l12.109,-3.027l-0,12.108l-12.109,0l0,-9.081Zm0.001,-108.973l12.108,-0l-0,69.622l-12.109,-0l0.001,-69.622Zm29.819,-81.73c29.336,-0 38.9,54.486 38.9,54.486l0.001,12.109l-77.802,-0l0,-12.108c0,-0 9.565,-54.487 38.901,-54.487Zm-29.82,51.459c0,0 2.567,-8.477 6.054,-15.135c3.488,-6.657 9.082,-12.108 9.082,-12.108c-0,-0 -2.71,12.561 -3.027,18.162c-0.317,5.601 -0,18.163 -0,18.163l-12.109,-0.001l0,-9.081Z" style="fill:#c21000;"/><path id="Evade--White-" serif:id="Evade [White]" d="M131.614,102.535c-12.036,-6.986 -19.39,-22.133 -17.432,-38.631c2.525,-21.266 19.568,-36.726 38.067,-34.53c18.499,2.197 31.448,21.217 28.923,42.483c-1.898,15.988 -12.001,28.694 -24.76,33.082l0.603,1.281l9.303,2.465l3.295,4.999l36.008,27.079l13.552,3.378l2.522,-3.761l11.743,1.652l-2.146,11.668l-21.485,0.447l-40.419,-7.785l0.215,33.352l49.061,47.985l-20.95,49.835l9.633,9.017l-0.783,10.118l-17.484,-14.195l5.507,-51.155l-24.984,-13.949l-16.936,-1.002l1.826,45.811l16.385,51.972l-3.811,8.704l-11.788,0.139l6.577,-9.992l-29.505,-50.366l-12.023,-45.266l-3.886,-60.675l-28.438,49.487l3.837,4.786l-8.296,12.052l-8.545,-10.856l14.342,-58.271l28.169,-44.738l9.121,-2.435l4.982,-4.185Zm103.483,125.482l122.676,2.304l7.794,1.614l-10.966,6.123l-128.875,3.179l9.371,-13.22Zm14.144,-86.724l117.426,3.248l-2.187,6.165l-121.055,2.095l5.816,-11.508Zm-53.892,-37.4l161.127,3.598l-2.063,6.608l-153.295,2.629l-5.769,-12.835Z" style="fill:#fff;"/></g></svg>